# xmcd CD database file
#
# Track frame offsets:
#	150
#	21115
#	42435
#	68260
#	87865
#	118305
#	140030
#	161165
#	179360
#	205290
#	225345
#	245795
#	267520
#	297100
#	325140
#
# Disc length: 4633 seconds
#
# Revision: 6
# Processed by: cddbd v1.4PL0 Copyright (c) Steve Scherf et al.
# Submitted via: NeoAudio 1.40Release
#
DISCID=dc12170f
DTITLE=Michael Jackson - History - Past, Present and Future - Book 1 [History Continues - Disk 2]
DYEAR=1995
DGENRE=Pop
TTITLE0=Scream  (Duet  With  Janet  Jackson)
TTITLE1=They  Don't  Care  About  Us
TTITLE2=Stranger  In  Moscow
TTITLE3=This  Time  Around
TTITLE4=Earth  Song
TTITLE5=D. S.
TTITLE6=Money
TTITLE7=Come  Together
TTITLE8=You  Are  Not  Alone
TTITLE9=Childhood  (Theme  From  Free  Willy  2)
TTITLE10=Tabloid  Junkie
TTITLE11=2  Bad
TTITLE12=History
TTITLE13=Little  Susie
TTITLE14=Smile
EXTD=YEAR: 1995 ID3G: 13
EXTT0=
EXTT1=
EXTT2=
EXTT3=
EXTT4=
EXTT5=
EXTT6=
EXTT7=
EXTT8=
EXTT9=
EXTT10=
EXTT11=
EXTT12=
EXTT13=
EXTT14=
PLAYORDER=
